<?xml version="1.0" standalone="no"?>
<!DOCTYPE svg PUBLIC "-//W3C//DTD SVG 20010904//EN"
 "http://www.w3.org/TR/2001/REC-SVG-20010904/DTD/svg10.dtd">
<svg version="1.0" xmlns="http://www.w3.org/2000/svg"
 width="512.000000pt" height="512.000000pt" viewBox="0 0 512.000000 512.000000"
 preserveAspectRatio="xMidYMid meet">
<metadata>
Created by potrace 1.11, written by Peter Selinger 2001-2013
</metadata>
<g transform="translate(0.000000,512.000000) scale(0.100000,-0.100000)"
fill="#000000" stroke="none">
<path d="M2079 3947 c-132 -49 -187 -196 -123 -326 37 -74 88 -106 170 -106
53 0 69 4 106 30 99 69 128 216 63 320 -48 76 -138 111 -216 82z"/>
<path d="M3505 3786 c-113 -50 -164 -206 -104 -321 81 -159 294 -140 359 33
56 148 -36 303 -179 302 -25 -1 -59 -7 -76 -14z"/>
<path d="M2275 3440 c-405 -85 -738 -385 -858 -771 -43 -140 -52 -197 -52
-354 0 -317 103 -568 325 -799 301 -312 762 -426 1178 -290 575 188 905 803
747 1393 -62 230 -216 460 -405 606 -139 106 -329 191 -497 220 -120 21 -325
18 -438 -5z m379 -30 c7 0 11 -43 12 -138 1 -148 20 -256 69 -376 24 -60 24
-62 7 -86 -26 -36 -113 -80 -171 -87 -54 -6 -148 3 -170 17 -23 13 4 94 27 85
9 -4 43 -9 74 -12 62 -6 148 18 148 40 0 7 -12 48 -26 92 -32 101 -54 245 -54
357 0 110 4 122 43 114 16 -3 35 -6 41 -6z m-778 -958 c6 -4 14 -35 17 -69 10
-115 100 -239 232 -318 137 -82 349 -123 541 -104 101 9 262 45 330 74 l35 14
15 -34 c8 -19 14 -39 14 -44 0 -12 -177 -67 -279 -86 -109 -20 -315 -19 -422
1 -311 59 -538 262 -556 497 l-6 77 34 0 c19 0 39 -4 45 -8z"/>
</g>
</svg>
