<svg width="945" height="916" viewBox="0 0 945 916" fill="none" xmlns="http://www.w3.org/2000/svg">
<path d="M574.631 788.101L348.481 804.331C341.901 804.801 336.121 799.801 335.651 793.221L326.031 659.091C325.561 652.511 330.561 646.731 337.141 646.261L563.291 630.031C569.871 629.561 575.651 634.56 576.121 641.14L585.741 775.271C586.211 781.851 581.211 787.631 574.631 788.101Z" fill="#F4F5F7" fill-opacity="0.2" stroke="#F4F5F7" stroke-width="3" stroke-miterlimit="10" stroke-linecap="round" stroke-linejoin="round"/>
<path d="M454.621 751.95C467.268 751.95 477.521 741.698 477.521 729.051C477.521 716.403 467.268 706.15 454.621 706.15C441.973 706.15 431.721 716.403 431.721 729.051C431.721 741.698 441.973 751.95 454.621 751.95Z" fill="white" stroke="#F4F5F7" stroke-width="3" stroke-miterlimit="10" stroke-linecap="round" stroke-linejoin="round"/>
<path d="M96.7002 913.99V178.58C96.7002 107.53 154.83 49.3899 225.89 49.3899H759.96C831.01 49.3899 889.15 107.52 889.15 178.58V913.99" stroke="#F4F5F7" stroke-width="3" stroke-miterlimit="10" stroke-linecap="round" stroke-linejoin="round"/>
<path d="M156.63 28.5798C163.97 28.5798 169.92 22.6299 169.92 15.29C169.92 7.95017 163.97 2 156.63 2C149.29 2 143.34 7.95017 143.34 15.29C143.34 22.6299 149.29 28.5798 156.63 28.5798Z" fill="white" stroke="#F4F5F7" stroke-width="3" stroke-miterlimit="10" stroke-linecap="round" stroke-linejoin="round"/>
<path d="M215.73 28.5798C223.07 28.5798 229.021 22.6299 229.021 15.29C229.021 7.95017 223.07 2 215.73 2C208.391 2 202.44 7.95017 202.44 15.29C202.44 22.6299 208.391 28.5798 215.73 28.5798Z" fill="#F4F5F7" fill-opacity="0.2" stroke="#F4F5F7" stroke-width="3" stroke-miterlimit="10" stroke-linecap="round" stroke-linejoin="round"/>
<path d="M830 222.03L852.57 212C852.57 212 846.05 238.58 856.08 246.1C865.47 253.14 892.94 243.34 901.72 254.12C909.25 263.37 904.23 306.28 904.23 306.28L888.18 314.81C888.18 314.81 893.43 279.46 884.17 271.68C871.63 261.15 851.09 273.9 842.55 268.17C830 259.77 830 222.03 830 222.03Z" fill="white" stroke="#F4F5F7" stroke-width="3" stroke-miterlimit="10" stroke-linecap="round" stroke-linejoin="round"/>
<path d="M275.21 28.5798C282.55 28.5798 288.5 22.6299 288.5 15.29C288.5 7.95017 282.55 2 275.21 2C267.87 2 261.92 7.95017 261.92 15.29C261.92 22.6299 267.87 28.5798 275.21 28.5798Z" fill="#F4F5F7" fill-opacity="0.5" stroke="#F4F5F7" stroke-width="3" stroke-miterlimit="10" stroke-linecap="round" stroke-linejoin="round"/>
<path d="M408.11 726.52L476.5 762.2" stroke="white" stroke-miterlimit="10"/>
<path d="M492.92 905.42C492.92 905.42 696.79 801.83 696.79 777.33" stroke="white" stroke-miterlimit="10"/>
<path d="M888.82 675.64C918.544 675.64 942.64 651.544 942.64 621.82C942.64 592.096 918.544 568 888.82 568C859.096 568 835 592.096 835 621.82C835 651.544 859.096 675.64 888.82 675.64Z" fill="white" stroke="#F4F5F7" stroke-width="3" stroke-miterlimit="10" stroke-linecap="round" stroke-linejoin="round"/>
<path d="M59.4562 260.259C59.4562 260.259 49.6362 205.199 36.2562 209.209C22.8862 213.219 40.9361 262.039 40.9361 262.039C40.9361 262.039 3.09617 283.039 5.20617 292.539C7.27617 301.889 84.7363 425.529 106.296 430.039C127.856 434.549 192.056 426.229 192.056 426.229L182.026 365.349C182.026 365.349 134.656 367.769 120.756 361.239C71.0162 337.859 85.4162 232.269 74.0262 230.619C61.2762 228.759 59.4562 260.259 59.4562 260.259Z" fill="white" stroke="#F4F5F7" stroke-width="3" stroke-miterlimit="10" stroke-linecap="round" stroke-linejoin="round"/>
<path d="M45.476 299.199L57.0561 293.179C57.0561 293.179 45.0559 255.599 32.8359 261.279C23.6359 265.559 45.476 299.199 45.476 299.199Z" fill="white" stroke="#F4F5F7" stroke-width="3" stroke-miterlimit="10" stroke-linecap="round" stroke-linejoin="round"/>
<path d="M31.0252 307.039L43.0352 300.649C43.0352 300.649 29.9352 262.279 19.7852 267.549C8.72522 273.299 31.0252 307.039 31.0252 307.039Z" fill="white" stroke="#F4F5F7" stroke-width="3" stroke-miterlimit="10" stroke-linecap="round" stroke-linejoin="round"/>
<path d="M17.1953 315.499L28.2254 308.139C28.2254 308.139 15.1254 269.769 4.98539 275.039C-6.08461 280.789 17.1953 315.499 17.1953 315.499Z" fill="white" stroke="#F4F5F7" stroke-width="3" stroke-miterlimit="10" stroke-linecap="round" stroke-linejoin="round"/>
<path d="M51.2256 296.559C51.2256 296.559 58.6655 308.849 67.6855 310.519" stroke="#F4F5F7" stroke-width="3" stroke-miterlimit="10" stroke-linecap="round" stroke-linejoin="round"/>
</svg>
