<svg width="80" height="108" viewBox="0 0 80 108" fill="none" xmlns="http://www.w3.org/2000/svg">
<circle cx="38.9639" cy="44.452" r="20.9609" fill="#111111"/>
<path d="M26.8701 41.8584C26.0569 48.8506 36.4864 55.0382 48.8426 50.0786" stroke="white" stroke-width="1.63869"/>
<ellipse cx="32.0661" cy="18.5629" rx="3.68704" ry="4.09671" transform="rotate(8.22354 32.0661 18.5629)" fill="#111111"/>
<ellipse cx="58.4634" cy="21.3936" rx="3.68704" ry="4.09671" transform="rotate(8.72432 58.4634 21.3936)" fill="#111111"/>
<path d="M41.0385 24.3917C40.3396 30.0843 42.6367 34.9066 42.6367 34.9066C42.6367 34.9066 40.914 37.1716 36.9476 35.8591" stroke="white" stroke-width="1.63869"/>
<path d="M21.302 86.896C22.29 86.896 23.122 87.13 23.798 87.598C24.474 88.0487 24.9767 88.6467 25.306 89.392C25.6353 90.1373 25.8 90.9347 25.8 91.784V100H22.29V92.85C22.29 92.1047 22.1513 91.4373 21.874 90.848C21.614 90.2587 21.0853 89.964 20.288 89.964C19.352 89.964 18.728 90.3107 18.416 91.004C18.1213 91.6973 17.974 92.668 17.974 93.916L18 95.476V100H14.49V92.824C14.49 92.1133 14.3773 91.4633 14.152 90.874C13.9267 90.2673 13.3893 89.964 12.54 89.964C11.5693 89.964 10.9367 90.3193 10.642 91.03C10.3473 91.7233 10.2 92.72 10.2 94.02V95.476V100H6.664V87.182H10.044V88.794C10.7893 87.5287 11.9247 86.896 13.45 86.896C14.23 86.896 14.9493 87.0867 15.608 87.468C16.284 87.8493 16.804 88.508 17.168 89.444C17.6707 88.508 18.2687 87.8493 18.962 87.468C19.6553 87.0867 20.4353 86.896 21.302 86.896ZM28.7532 100V87.182H32.2892V100H28.7532ZM28.7012 85.076V81.878H32.3412V85.076H28.7012ZM42.8379 86.896C44.2939 86.896 45.4293 87.312 46.2439 88.144C47.0586 88.976 47.4659 90.1287 47.4659 91.602V100H43.9559V92.72C43.9559 91.94 43.8259 91.29 43.5659 90.77C43.3059 90.2327 42.6993 89.964 41.7459 89.964C40.9313 89.964 40.3246 90.1893 39.9259 90.64C39.5446 91.0907 39.3106 91.6193 39.2239 92.226C39.1373 92.8153 39.0939 93.552 39.0939 94.436V100H35.5579V87.182H39.0939V88.508C39.9433 87.4333 41.1913 86.896 42.8379 86.896ZM61.8502 81.878V100H58.3402V98.856C57.9242 99.3413 57.3956 99.7053 56.7542 99.948C56.1302 100.173 55.4802 100.286 54.8042 100.286C53.6949 100.286 52.7329 100 51.9182 99.428C51.1209 98.856 50.5142 98.0673 50.0982 97.062C49.6822 96.0393 49.4742 94.878 49.4742 93.578C49.4742 92.2087 49.6996 91.0213 50.1502 90.016C50.6182 88.9933 51.2596 88.222 52.0742 87.702C52.8889 87.1647 53.7989 86.896 54.8042 86.896C55.4976 86.896 56.1562 87.026 56.7802 87.286C57.4216 87.546 57.9416 87.9013 58.3402 88.352V81.878H61.8502ZM55.7142 96.984C56.7196 96.984 57.4562 96.6807 57.9242 96.074C58.4096 95.45 58.6522 94.6267 58.6522 93.604C58.6522 92.5813 58.4182 91.7493 57.9502 91.108C57.4822 90.4493 56.7456 90.12 55.7402 90.12C54.8562 90.12 54.1802 90.4233 53.7122 91.03C53.2442 91.6367 53.0102 92.4947 53.0102 93.604C53.0102 94.7133 53.2356 95.554 53.6862 96.126C54.1542 96.698 54.8302 96.984 55.7142 96.984ZM72.0534 86.896C72.9027 86.896 73.7347 87.156 74.5494 87.676L72.8594 90.822C72.4087 90.5273 71.8714 90.38 71.2474 90.38C69.5487 90.38 68.6994 91.5153 68.6994 93.786V100H65.1634V87.182H68.7254V89.21C69.0027 88.4993 69.4447 87.936 70.0514 87.52C70.6754 87.104 71.3427 86.896 72.0534 86.896Z" fill="black"/>
</svg>
